<?xml version="1.0" standalone="no"?>
<!DOCTYPE svg PUBLIC "-//W3C//DTD SVG 20010904//EN"
 "http://www.w3.org/TR/2001/REC-SVG-20010904/DTD/svg10.dtd">
<svg version="1.0" xmlns="http://www.w3.org/2000/svg"
 width="560.000000pt" height="266.000000pt" viewBox="0 0 560.000000 266.000000"
 preserveAspectRatio="xMidYMid meet">
<metadata>
Created by potrace 1.16, written by Peter Selinger 2001-2019
</metadata>
<g transform="translate(0.000000,266.000000) scale(0.100000,-0.100000)"
fill="#000000" stroke="none">
<path d="M3070 1350 c0 -99 1 -102 18 -87 27 24 272 25 272 1 0 -9 36 14 96
63 l96 78 -224 2 c-213 3 -224 4 -240 24 -17 20 -18 18 -18 -81z"/>
<path d="M3792 1433 c-12 -21 -20 -23 -110 -23 l-97 -1 -112 -92 -112 -92 -1
-98 c0 -54 4 -97 8 -95 4 2 40 23 80 48 l72 45 0 78 0 77 113 0 c107 1 113 2
145 28 32 26 33 30 30 87 -3 55 -4 58 -16 38z"/>
<path d="M4592 1433 l-13 -23 -314 0 c-209 0 -321 -4 -333 -11 -16 -10 -17
-37 -14 -354 l3 -344 -23 -20 -22 -21 352 0 c341 0 352 -1 364 -20 7 -11 16
-20 20 -20 5 0 8 45 8 100 0 91 -9 123 -24 85 -5 -13 -43 -15 -261 -15 l-255
0 0 100 0 100 165 0 c138 0 167 -3 171 -15 15 -37 24 -8 24 75 0 83 -9 112
-24 75 -4 -12 -33 -15 -171 -15 l-165 0 0 85 0 85 250 0 c226 0 250 -2 259
-17 17 -31 22 -8 19 93 -3 87 -5 96 -16 77z"/>
<path d="M650 1420 c-154 -24 -266 -99 -326 -220 -37 -72 -45 -200 -19 -283
35 -111 139 -211 260 -250 142 -44 309 -21 470 67 33 18 69 31 79 28 17 -4 17
-1 -4 34 -13 22 -37 59 -54 84 l-31 45 -5 -28 c-6 -36 -59 -69 -153 -98 -100
-31 -214 -24 -288 18 -105 59 -153 163 -129 278 15 71 59 129 129 168 76 43
190 50 291 17 75 -24 120 -52 120 -76 0 -31 21 -10 70 69 l51 82 -43 6 c-24 3
-81 17 -128 31 -98 29 -211 40 -290 28z"/>
<path d="M1430 1406 c-201 -56 -321 -236 -289 -434 13 -82 45 -144 105 -205
197 -198 587 -148 708 90 113 224 -8 482 -259 549 -62 17 -205 17 -265 0z
m265 -135 c97 -44 152 -142 143 -255 -12 -145 -117 -236 -273 -236 -156 0
-261 91 -273 236 -10 134 66 241 195 274 52 13 159 3 208 -19z"/>
<path d="M2088 1393 l22 -15 0 -343 0 -343 -22 -15 c-22 -15 -16 -16 86 -16
106 -1 109 0 92 17 -14 17 -16 47 -14 268 l3 249 135 -262 c74 -144 138 -259
142 -255 4 4 66 117 138 252 73 135 136 249 141 255 5 5 9 -59 9 -158 0 -92 3
-167 6 -167 3 0 37 21 75 48 l69 47 0 211 c0 208 0 212 23 227 20 15 12 16
-122 16 -139 1 -144 0 -128 -17 10 -10 17 -24 17 -30 0 -12 -205 -400 -218
-414 -4 -4 -56 89 -114 207 -95 189 -106 216 -93 229 8 8 15 17 15 20 0 3 -64
6 -142 5 -133 0 -141 -1 -120 -16z"/>
<path d="M4730 1404 c0 -4 8 -13 18 -20 16 -11 17 -40 17 -353 0 -328 -1 -341
-20 -355 -18 -14 15 -15 327 -16 335 0 347 -1 361 -20 8 -11 17 -17 20 -13 10
10 8 193 -2 193 -5 0 -11 -7 -15 -15 -5 -13 -42 -15 -256 -15 l-250 0 0 295
c0 254 2 296 15 301 40 16 5 24 -100 24 -63 0 -115 -3 -115 -6z"/>
<path d="M3438 1050 l-78 -49 0 -154 c0 -149 -1 -155 -22 -170 -22 -15 -15
-16 96 -16 114 -1 118 0 103 17 -14 15 -17 50 -19 220 l-3 202 -77 -50z"/>
<path d="M2893 879 l-73 -50 0 -56 c0 -30 3 -53 8 -51 4 2 37 19 75 38 l67 34
0 68 c0 37 -1 68 -2 68 -2 0 -36 -23 -75 -51z"/>
<path d="M3580 540 c0 -29 -4 -40 -15 -40 -8 0 -15 -6 -15 -14 0 -8 7 -16 15
-20 11 -4 15 -20 15 -58 0 -66 20 -98 61 -98 24 0 29 4 29 25 0 19 -5 25 -21
25 -18 0 -20 5 -17 53 3 45 6 52 26 55 31 5 29 32 -3 32 -22 0 -25 4 -25 40 0
36 -2 40 -25 40 -22 0 -25 -4 -25 -40z"/>
<path d="M2620 435 l0 -125 90 0 c89 0 90 0 90 25 0 24 -2 25 -65 25 l-65 0 0
100 0 100 -25 0 -25 0 0 -125z"/>
<path d="M4280 540 c-23 -23 -26 -68 -7 -93 6 -9 34 -25 60 -37 29 -12 47 -25
44 -33 -4 -13 -62 -15 -89 -3 -11 5 -20 1 -27 -13 -10 -18 -7 -22 18 -36 46
-23 98 -19 126 10 14 13 25 33 25 43 0 29 -37 70 -69 77 -42 9 -59 31 -39 51
12 13 19 13 42 2 25 -11 30 -10 42 6 12 17 11 21 -4 32 -27 21 -99 17 -122 -6z"/>
<path d="M4827 504 c-4 -4 -21 -7 -39 -6 -17 0 -40 -4 -50 -9 -12 -6 -18 -6
-18 1 0 5 -11 10 -25 10 -25 0 -25 0 -25 -95 0 -95 0 -95 25 -95 24 0 25 3 25
55 0 42 5 60 20 75 12 12 25 18 30 15 6 -4 10 3 10 15 0 36 15 15 50 -74 28
-70 39 -86 56 -86 17 0 28 17 58 87 34 81 36 89 20 100 -23 17 -28 12 -49 -44
-10 -26 -21 -52 -25 -56 -4 -5 -18 19 -32 53 -13 33 -27 57 -31 54z"/>
<path d="M2865 475 c-19 -18 -25 -35 -25 -69 0 -37 5 -48 31 -70 71 -60 172
-2 155 90 -14 70 -111 100 -161 49z"/>
<path d="M3086 479 c-21 -17 -26 -29 -26 -65 0 -73 61 -116 121 -84 16 9 19 7
19 -8 0 -34 -27 -47 -71 -35 -31 8 -41 7 -51 -4 -33 -40 98 -61 143 -24 22 18
24 28 27 130 l4 111 -26 0 c-14 0 -26 -5 -26 -12 0 -9 -3 -9 -12 0 -19 19 -73
14 -102 -9z"/>
<path d="M3402 488 c-7 -7 -12 -27 -12 -46 0 -29 5 -35 38 -49 45 -18 46 -19
38 -32 -5 -7 -15 -7 -33 0 -20 7 -28 6 -38 -8 -12 -16 -10 -20 8 -30 53 -30
117 -3 117 48 0 26 -6 32 -46 49 -46 20 -53 45 -9 34 29 -7 56 30 29 40 -26
10 -79 7 -92 -6z"/>
<path d="M3826 469 c-51 -60 -21 -143 56 -156 48 -7 97 20 77 43 -8 10 -22 12
-45 8 -59 -11 -87 42 -44 81 16 15 25 16 44 7 17 -7 27 -7 35 1 28 28 5 47
-59 47 -30 0 -44 -6 -64 -31z"/>
<path d="M4006 481 c-28 -31 -17 -63 31 -86 51 -24 55 -40 9 -32 -24 4 -39 1
-48 -10 -31 -38 75 -60 112 -23 38 38 19 82 -40 95 -17 4 -30 13 -30 22 0 11
7 13 29 8 21 -4 30 -2 35 10 10 26 -2 35 -43 35 -25 0 -44 -7 -55 -19z"/>
<path d="M4492 477 c-30 -32 -37 -78 -18 -115 27 -53 88 -69 135 -36 31 22 13
39 -41 39 -24 0 -43 5 -45 13 -4 9 12 12 56 12 55 0 61 2 61 20 0 29 -26 76
-45 84 -36 13 -82 6 -103 -17z"/>
<path d="M5127 480 c-67 -53 -25 -170 62 -170 29 0 71 21 71 35 0 19 -27 38
-35 25 -11 -18 -63 -12 -75 9 -16 31 -12 49 14 66 19 12 30 14 44 6 15 -8 23
-6 37 9 16 17 16 19 -4 29 -31 17 -86 13 -114 -9z"/>
<path d="M5305 475 c-33 -32 -35 -101 -5 -133 33 -35 87 -41 129 -13 26 17 -5
40 -43 34 -22 -3 -36 0 -45 11 -12 14 -7 16 48 16 60 0 61 0 61 29 0 15 -9 40
-21 55 -28 36 -89 37 -124 1z"/>
</g>
</svg>
